<svg width="29" height="28" viewBox="0 0 29 28" fill="none" xmlns="http://www.w3.org/2000/svg">
<g id="edit">
<path id="&#226;&#134;&#179; Icon Color" fill-rule="evenodd" clip-rule="evenodd" d="M22.2824 3.33577C21.4267 2.8998 20.4141 2.8998 19.5584 3.33577C19.1306 3.55377 18.7586 3.92671 18.3282 4.35818L5.17735 17.5092C4.82324 17.8631 4.56884 18.1174 4.35984 18.4051C3.94242 18.9796 3.66691 19.6448 3.55582 20.3462C3.50019 20.6974 3.50028 21.057 3.5004 21.5577L3.50041 22.6004L3.50021 22.6814C3.49919 22.9631 3.49793 23.3095 3.5983 23.6184C3.79614 24.2273 4.2735 24.7047 4.88238 24.9025C5.1913 25.0029 5.53766 25.0016 5.81943 25.0006L5.90041 25.0004L6.94309 25.0004C7.44374 25.0005 7.80343 25.0006 8.15462 24.945C8.85603 24.8339 9.52118 24.5584 10.0957 24.141C10.3834 23.932 10.6376 23.6776 10.9916 23.3235L24.1426 10.1726C24.5741 9.74217 24.947 9.37018 25.165 8.94234C25.601 8.08669 25.601 7.07404 25.165 6.2184C24.947 5.79057 24.5741 5.41858 24.1426 4.98821L23.5126 4.35819C23.0822 3.92671 22.7102 3.55377 22.2824 3.33577ZM20.4664 5.11778C20.7516 4.97246 21.0892 4.97246 21.3744 5.11778C21.48 5.17156 21.6117 5.28588 22.1932 5.86737L22.6334 6.30758C23.2149 6.88906 23.3292 7.02083 23.383 7.12638C23.5283 7.41159 23.5283 7.74914 23.383 8.03436C23.3292 8.13991 23.2149 8.27167 22.6334 8.85316L21.7754 9.71118L18.7896 6.72539L19.6476 5.86737C20.2291 5.28588 20.3609 5.17156 20.4664 5.11778ZM17.3754 8.1396L6.6427 18.8723C6.21724 19.2978 6.08276 19.4363 5.97787 19.5806C5.74597 19.8998 5.59291 20.2694 5.53119 20.659C5.50328 20.8353 5.50041 21.0283 5.50041 21.63V22.6004C5.50041 22.7974 5.50076 22.9051 5.50504 22.9834L5.50573 22.9951L5.51739 22.9958C5.59565 23 5.70338 23.0004 5.90041 23.0004H6.87077C7.47246 23.0004 7.6655 22.9975 7.84175 22.9696C8.23142 22.9079 8.60095 22.7548 8.92013 22.5229C9.06449 22.418 9.20302 22.2836 9.62848 21.8581L20.3612 11.1254L17.3754 8.1396Z" fill="#3A55F8"/>
</g>
</svg>
