<svg width="32" height="32" viewBox="0 0 32 32" fill="none" xmlns="http://www.w3.org/2000/svg">
<g id="32/cancel_filled">
<path id="&#226;&#134;&#179; Icon Color" d="M24.9362 7.06473C25.4666 7.59505 25.4666 8.45486 24.9362 8.98518L17.2544 16.667L24.9362 24.3488C25.4666 24.8791 25.4666 25.7389 24.9362 26.2693C24.4059 26.7996 23.5461 26.7996 23.0158 26.2693L15.334 18.5874L7.65218 26.2693C7.12186 26.7996 6.26204 26.7996 5.73172 26.2693C5.2014 25.7389 5.2014 24.8791 5.73172 24.3488L13.4135 16.667L5.73172 8.98518C5.2014 8.45486 5.2014 7.59505 5.73172 7.06473C6.26204 6.53441 7.12186 6.53441 7.65218 7.06473L15.334 14.7465L23.0158 7.06473C23.5461 6.53441 24.4059 6.53441 24.9362 7.06473Z" fill="white"/>
</g>
</svg>
