
<svg width="198" height="44" viewBox="0 0 198 44" fill="none" xmlns="http://www.w3.org/2000/svg">
<rect width="198" height="44" rx="22" fill="white"/>
<path d="M34.1667 22C34.1667 22.3578 34.1356 22.7156 34.0889 23.0578L36.3911 24.8622C36.5933 25.0333 36.6556 25.3133 36.5156 25.5622L34.3378 29.3267C34.1978 29.56 33.9178 29.6533 33.6689 29.56L30.9622 28.4711C30.4022 28.9067 29.78 29.2644 29.1111 29.5444L28.7222 32.4222C28.6756 32.6867 28.4422 32.8889 28.1778 32.8889H23.8222C23.5578 32.8889 23.3244 32.6867 23.2778 32.4222L22.8889 29.5444C22.2044 29.2644 21.5978 28.9067 21.0378 28.4711L18.3311 29.56C18.0822 29.6533 17.8022 29.56 17.6622 29.3267L15.4844 25.5622C15.4182 25.4499 15.3943 25.3176 15.4171 25.1892C15.4399 25.0608 15.508 24.9448 15.6089 24.8622L17.9111 23.0578C17.8644 22.7156 17.8333 22.3578 17.8333 22C17.8333 21.6422 17.8644 21.2844 17.9111 20.9422L15.6089 19.1378C15.5085 19.0548 15.4409 18.9389 15.4181 18.8106C15.3953 18.6824 15.4188 18.5503 15.4844 18.4378L17.6622 14.6733C17.8022 14.4244 18.0822 14.3311 18.3311 14.4244L21.0378 15.5289C21.5978 15.0933 22.2044 14.72 22.8889 14.4556L23.2778 11.5622C23.3244 11.3133 23.5578 11.1111 23.8222 11.1111H28.1778C28.4422 11.1111 28.6756 11.3133 28.7222 11.5622L29.1111 14.4556C29.78 14.72 30.4022 15.0933 30.9622 15.5289L33.6689 14.4244C33.9178 14.3311 34.1978 14.4244 34.3378 14.6733L36.5156 18.4378C36.6556 18.6711 36.5933 18.9667 36.3911 19.1378L34.0889 20.9422C34.1356 21.2844 34.1667 21.6422 34.1667 22ZM36.8889 8H15.1111C13.3844 8 12 9.38444 12 11.1111V32.8889C12 33.714 12.3278 34.5053 12.9112 35.0888C13.4947 35.6722 14.286 36 15.1111 36H36.8889C37.714 36 38.5053 35.6722 39.0888 35.0888C39.6722 34.5053 40 33.714 40 32.8889V11.1111C40 10.286 39.6722 9.49467 39.0888 8.91122C38.5053 8.32778 37.714 8 36.8889 8ZM26 18.8889C24.2733 18.8889 22.8889 20.2733 22.8889 22C22.8889 22.8251 23.2167 23.6164 23.8001 24.1999C24.3836 24.7833 25.1749 25.1111 26 25.1111C26.8251 25.1111 27.6164 24.7833 28.1999 24.1999C28.7833 23.6164 29.1111 22.8251 29.1111 22C29.1111 21.1749 28.7833 20.3836 28.1999 19.8001C27.6164 19.2167 26.8251 18.8889 26 18.8889Z" fill="#3A55F8"/>
<path d="M58.2933 25.752C58.2933 26.7248 58.062 27.5663 57.5996 28.2766C57.1371 28.9868 56.4658 29.535 55.5857 29.921C54.7205 30.307 53.6837 30.5 52.4753 30.5C51.8935 30.5 51.3341 30.4614 50.7971 30.3842C50.275 30.3224 49.7752 30.2221 49.2978 30.0831C48.8354 29.9441 48.4028 29.7743 48 29.5736V26.7943C48.6713 27.1031 49.4097 27.3887 50.2153 27.6512C51.0209 27.8983 51.8413 28.0218 52.6767 28.0218C53.3182 28.0218 53.8403 27.9369 54.2431 27.767C54.6608 27.5817 54.9666 27.3347 55.1605 27.0259C55.3545 26.7016 55.4514 26.3311 55.4514 25.9142C55.4514 25.451 55.3246 25.0572 55.071 24.733C54.8174 24.4087 54.4445 24.1076 53.9522 23.8297C53.4599 23.5518 52.8483 23.2584 52.1173 22.9496C51.625 22.7334 51.1402 22.4941 50.6628 22.2316C50.2004 21.9537 49.7827 21.6217 49.4097 21.2357C49.0368 20.8497 48.7384 20.3942 48.5147 19.8692C48.2909 19.3442 48.179 18.7266 48.179 18.0163C48.179 17.0745 48.3953 16.2639 48.8279 15.5845C49.2755 14.9051 49.8946 14.3878 50.6852 14.0327C51.4908 13.6776 52.4231 13.5 53.4823 13.5C54.3326 13.5 55.1307 13.5926 55.8766 13.7779C56.6225 13.9632 57.3609 14.2257 58.0919 14.5654L57.1744 16.951C56.5181 16.6576 55.8841 16.426 55.2724 16.2561C54.6608 16.0863 54.0342 16.0014 53.3928 16.0014C52.8856 16.0014 52.453 16.0863 52.0949 16.2561C51.7369 16.4105 51.4684 16.6344 51.2894 16.9278C51.1104 17.2212 51.0209 17.5609 51.0209 17.9469C51.0209 18.3946 51.1327 18.7729 51.3565 19.0817C51.5803 19.3906 51.9234 19.6839 52.3858 19.9619C52.8632 20.2243 53.4748 20.5254 54.2207 20.8651C55.086 21.2511 55.8169 21.6526 56.4136 22.0695C57.0103 22.4864 57.4728 22.9882 57.801 23.5749C58.1292 24.1617 58.2933 24.8874 58.2933 25.752Z" fill="#2C2D2E"/>
<path d="M70.3947 30.2684H61.3098V13.7316H70.3947V16.2098H64.174V20.4251H69.9919V22.9033H64.174V27.767H70.3947V30.2684Z" fill="#2C2D2E"/>
<path d="M78.3299 13.7316C79.7321 13.7316 80.8883 13.9092 81.7982 14.2643C82.7082 14.6194 83.387 15.1599 83.8345 15.8856C84.2821 16.5958 84.5058 17.4991 84.5058 18.5954C84.5058 19.3983 84.3566 20.0854 84.0583 20.6567C83.7748 21.228 83.4019 21.7066 82.9394 22.0926C82.477 22.4632 81.9773 22.7643 81.4402 22.9959L86.0274 30.2684H82.8052L78.9788 23.7371H76.6516V30.2684H73.7874V13.7316H78.3299ZM78.1508 16.2098H76.6516V21.3052H78.2403C79.031 21.3052 79.6725 21.2048 80.1647 21.0041C80.657 20.8034 81.0151 20.51 81.2388 20.124C81.4775 19.738 81.5968 19.2593 81.5968 18.688C81.5968 18.0858 81.47 17.6072 81.2164 17.252C80.9628 16.8815 80.5824 16.619 80.0752 16.4646C79.5829 16.2947 78.9415 16.2098 78.1508 16.2098Z" fill="#2C2D2E"/>
<path d="M100.292 13.7316L94.7652 30.2684H91.6996L86.1725 13.7316H89.1039L92.3261 23.8529C92.4305 24.1308 92.535 24.4936 92.6394 24.9414C92.7587 25.3738 92.8706 25.8215 92.975 26.2847C93.0944 26.7325 93.1839 27.134 93.2436 27.4891C93.2883 27.134 93.3629 26.7325 93.4673 26.2847C93.5867 25.8215 93.706 25.3738 93.8254 24.9414C93.9447 24.4936 94.0491 24.1308 94.1386 23.8529L97.3609 13.7316H100.292Z" fill="#2C2D2E"/>
<path d="M117.268 30.2684H108.183V13.7316H117.268V16.2098H111.047V20.4251H116.865V22.9033H111.047V27.767H117.268V30.2684Z" fill="#2C2D2E"/>
<path d="M132.789 30.2684H129.522L125.606 23.6676L121.667 30.2684H118.624L123.927 21.6989L118.96 13.7316H122.115L125.74 19.8924L129.343 13.7316H132.408L127.418 21.8147L132.789 30.2684Z" fill="#2C2D2E"/>
<path d="M139.652 13.7316C141.726 13.7316 143.233 14.1794 144.173 15.0749C145.127 15.9705 145.605 17.2057 145.605 18.7807C145.605 19.4909 145.5 20.1703 145.291 20.8188C145.083 21.4519 144.732 22.0232 144.24 22.5327C143.747 23.0422 143.098 23.4437 142.293 23.7371C141.502 24.0304 140.518 24.1771 139.339 24.1771H137.75V30.2684H134.886V13.7316H139.652ZM139.473 16.1866H137.75V21.7221H139.048C139.824 21.7221 140.48 21.6294 141.017 21.4441C141.569 21.2434 141.987 20.9346 142.271 20.5177C142.554 20.1008 142.696 19.5604 142.696 18.8965C142.696 17.9855 142.435 17.3061 141.913 16.8583C141.39 16.4105 140.577 16.1866 139.473 16.1866Z" fill="#2C2D2E"/>
<path d="M157.825 30.2684H148.741V13.7316H157.825V16.2098H151.605V20.4251H157.423V22.9033H151.605V27.767H157.825V30.2684Z" fill="#2C2D2E"/>
<path d="M165.761 13.7316C167.163 13.7316 168.319 13.9092 169.229 14.2643C170.139 14.6194 170.818 15.1599 171.265 15.8856C171.713 16.5958 171.937 17.4991 171.937 18.5954C171.937 19.3983 171.787 20.0854 171.489 20.6567C171.206 21.228 170.833 21.7066 170.37 22.0926C169.908 22.4632 169.408 22.7643 168.871 22.9959L173.458 30.2684H170.236L166.41 23.7371H164.082V30.2684H161.218V13.7316H165.761ZM165.582 16.2098H164.082V21.3052H165.671C166.462 21.3052 167.103 21.2048 167.596 21.0041C168.088 20.8034 168.446 20.51 168.67 20.124C168.908 19.738 169.028 19.2593 169.028 18.688C169.028 18.0858 168.901 17.6072 168.647 17.252C168.394 16.8815 168.013 16.619 167.506 16.4646C167.014 16.2947 166.372 16.2098 165.582 16.2098Z" fill="#2C2D2E"/>
<path d="M181.413 30.2684H178.549V16.233H173.961V13.7316H186V16.233H181.413V30.2684Z" fill="#2C2D2E"/>
</svg>
