<svg width="29" height="28" viewBox="0 0 29 28" fill="none" xmlns="http://www.w3.org/2000/svg">
<path d="M22.6667 14C22.6667 14.3578 22.6356 14.7156 22.5889 15.0578L24.8911 16.8622C25.0933 17.0333 25.1556 17.3133 25.0156 17.5622L22.8378 21.3267C22.6978 21.56 22.4178 21.6533 22.1689 21.56L19.4622 20.4711C18.9022 20.9067 18.28 21.2644 17.6111 21.5444L17.2222 24.4222C17.1756 24.6867 16.9422 24.8889 16.6778 24.8889H12.3222C12.0578 24.8889 11.8244 24.6867 11.7778 24.4222L11.3889 21.5444C10.7044 21.2644 10.0978 20.9067 9.53778 20.4711L6.83111 21.56C6.58222 21.6533 6.30222 21.56 6.16222 21.3267L3.98444 17.5622C3.91817 17.4499 3.89429 17.3176 3.91712 17.1892C3.93994 17.0608 4.00797 16.9448 4.10889 16.8622L6.41111 15.0578C6.36444 14.7156 6.33333 14.3578 6.33333 14C6.33333 13.6422 6.36444 13.2844 6.41111 12.9422L4.10889 11.1378C4.00851 11.0548 3.94088 10.9389 3.91808 10.8106C3.89529 10.6824 3.91881 10.5503 3.98444 10.4378L6.16222 6.67333C6.30222 6.42444 6.58222 6.33111 6.83111 6.42444L9.53778 7.52889C10.0978 7.09333 10.7044 6.72 11.3889 6.45556L11.7778 3.56222C11.8244 3.31333 12.0578 3.11111 12.3222 3.11111H16.6778C16.9422 3.11111 17.1756 3.31333 17.2222 3.56222L17.6111 6.45556C18.28 6.72 18.9022 7.09333 19.4622 7.52889L22.1689 6.42444C22.4178 6.33111 22.6978 6.42444 22.8378 6.67333L25.0156 10.4378C25.1556 10.6711 25.0933 10.9667 24.8911 11.1378L22.5889 12.9422C22.6356 13.2844 22.6667 13.6422 22.6667 14ZM25.3889 0H3.61111C1.88444 0 0.5 1.38444 0.5 3.11111V24.8889C0.5 25.714 0.827777 26.5053 1.41122 27.0888C1.99467 27.6722 2.78599 28 3.61111 28H25.3889C26.214 28 27.0053 27.6722 27.5888 27.0888C28.1722 26.5053 28.5 25.714 28.5 24.8889V3.11111C28.5 2.28599 28.1722 1.49467 27.5888 0.911223C27.0053 0.327777 26.214 0 25.3889 0ZM14.5 10.8889C12.7733 10.8889 11.3889 12.2733 11.3889 14C11.3889 14.8251 11.7167 15.6164 12.3001 16.1999C12.8836 16.7833 13.6749 17.1111 14.5 17.1111C15.3251 17.1111 16.1164 16.7833 16.6999 16.1999C17.2833 15.6164 17.6111 14.8251 17.6111 14C17.6111 13.1749 17.2833 12.3836 16.6999 11.8001C16.1164 11.2167 15.3251 10.8889 14.5 10.8889Z" fill="#3A55F8"/>
</svg>
