<svg width="177" height="28" viewBox="0 0 177 28" fill="none" xmlns="http://www.w3.org/2000/svg">
<g id="logo">
<path id="Vector" d="M22.1667 14C22.1667 14.3578 22.1356 14.7156 22.0889 15.0578L24.3911 16.8622C24.5933 17.0333 24.6556 17.3133 24.5156 17.5622L22.3378 21.3267C22.1978 21.56 21.9178 21.6533 21.6689 21.56L18.9622 20.4711C18.4022 20.9067 17.78 21.2644 17.1111 21.5444L16.7222 24.4222C16.6756 24.6867 16.4422 24.8889 16.1778 24.8889H11.8222C11.5578 24.8889 11.3244 24.6867 11.2778 24.4222L10.8889 21.5444C10.2044 21.2644 9.59778 20.9067 9.03778 20.4711L6.33111 21.56C6.08222 21.6533 5.80222 21.56 5.66222 21.3267L3.48444 17.5622C3.41817 17.4499 3.39429 17.3176 3.41712 17.1892C3.43994 17.0608 3.50797 16.9448 3.60889 16.8622L5.91111 15.0578C5.86444 14.7156 5.83333 14.3578 5.83333 14C5.83333 13.6422 5.86444 13.2844 5.91111 12.9422L3.60889 11.1378C3.50851 11.0548 3.44088 10.9389 3.41808 10.8106C3.39529 10.6824 3.41881 10.5503 3.48444 10.4378L5.66222 6.67333C5.80222 6.42444 6.08222 6.33111 6.33111 6.42444L9.03778 7.52889C9.59778 7.09333 10.2044 6.72 10.8889 6.45556L11.2778 3.56222C11.3244 3.31333 11.5578 3.11111 11.8222 3.11111H16.1778C16.4422 3.11111 16.6756 3.31333 16.7222 3.56222L17.1111 6.45556C17.78 6.72 18.4022 7.09333 18.9622 7.52889L21.6689 6.42444C21.9178 6.33111 22.1978 6.42444 22.3378 6.67333L24.5156 10.4378C24.6556 10.6711 24.5933 10.9667 24.3911 11.1378L22.0889 12.9422C22.1356 13.2844 22.1667 13.6422 22.1667 14ZM24.8889 0H3.11111C1.38444 0 0 1.38444 0 3.11111V24.8889C0 25.714 0.327777 26.5053 0.911223 27.0888C1.49467 27.6722 2.28599 28 3.11111 28H24.8889C25.714 28 26.5053 27.6722 27.0888 27.0888C27.6722 26.5053 28 25.714 28 24.8889V3.11111C28 2.28599 27.6722 1.49467 27.0888 0.911223C26.5053 0.327777 25.714 0 24.8889 0ZM14 10.8889C12.2733 10.8889 10.8889 12.2733 10.8889 14C10.8889 14.8251 11.2167 15.6164 11.8001 16.1999C12.3836 16.7833 13.1749 17.1111 14 17.1111C14.8251 17.1111 15.6164 16.7833 16.1999 16.1999C16.7833 15.6164 17.1111 14.8251 17.1111 14C17.1111 13.1749 16.7833 12.3836 16.1999 11.8001C15.6164 11.2167 14.8251 10.8889 14 10.8889Z" fill="#3A55F8"/>
<g id="Serv expert">
<path d="M49.2933 17.9728C49.2933 19.0027 49.062 19.8937 48.5996 20.6458C48.1371 21.3978 47.4658 21.9782 46.5857 22.3869C45.7205 22.7956 44.6837 23 43.4753 23C42.8935 23 42.3341 22.9591 41.7971 22.8774C41.275 22.812 40.7752 22.7057 40.2978 22.5586C39.8354 22.4114 39.4028 22.2316 39 22.0191V19.0763C39.6713 19.4033 40.4097 19.7057 41.2153 19.9837C42.0209 20.2452 42.8413 20.376 43.6767 20.376C44.3182 20.376 44.8403 20.2861 45.2431 20.1063C45.6608 19.9101 45.9666 19.6485 46.1605 19.3215C46.3545 18.9782 46.4514 18.5858 46.4514 18.1444C46.4514 17.654 46.3246 17.2371 46.071 16.8937C45.8174 16.5504 45.4445 16.2316 44.9522 15.9373C44.4599 15.6431 43.8483 15.3324 43.1173 15.0054C42.625 14.7766 42.1402 14.5232 41.6628 14.2452C41.2004 13.951 40.7827 13.5995 40.4097 13.1907C40.0368 12.782 39.7384 12.2997 39.5147 11.7439C39.2909 11.188 39.179 10.5341 39.179 9.78202C39.179 8.78474 39.3953 7.92643 39.8279 7.20709C40.2755 6.48774 40.8946 5.94005 41.6852 5.56403C42.4908 5.18801 43.4231 5 44.4823 5C45.3326 5 46.1307 5.09809 46.8766 5.29428C47.6225 5.49046 48.3609 5.76839 49.0919 6.12807L48.1744 8.65395C47.5181 8.34332 46.8841 8.09809 46.2724 7.91826C45.6608 7.73842 45.0342 7.6485 44.3928 7.6485C43.8856 7.6485 43.453 7.73842 43.0949 7.91826C42.7369 8.08174 42.4684 8.3188 42.2894 8.62943C42.1104 8.94005 42.0209 9.29973 42.0209 9.70845C42.0209 10.1826 42.1327 10.5831 42.3565 10.9101C42.5803 11.2371 42.9234 11.5477 43.3858 11.842C43.8632 12.1199 44.4748 12.4387 45.2207 12.7984C46.086 13.2071 46.8169 13.6322 47.4136 14.0736C48.0103 14.515 48.4728 15.0463 48.801 15.6676C49.1292 16.2888 49.2933 17.0572 49.2933 17.9728Z" fill="#2C2D2E"/>
<path d="M61.3947 22.7548H52.3098V5.24523H61.3947V7.86921H55.174V12.3324H60.9919V14.9564H55.174V20.1063H61.3947V22.7548Z" fill="#2C2D2E"/>
<path d="M69.3299 5.24523C70.7321 5.24523 71.8883 5.43324 72.7982 5.80926C73.7082 6.18529 74.387 6.75749 74.8345 7.52589C75.2821 8.27793 75.5058 9.23433 75.5058 10.3951C75.5058 11.2452 75.3566 11.9728 75.0583 12.5777C74.7748 13.1826 74.4019 13.6894 73.9394 14.0981C73.477 14.4905 72.9773 14.8093 72.4402 15.0545L77.0274 22.7548H73.8052L69.9788 15.8392H67.6516V22.7548H64.7874V5.24523H69.3299ZM69.1508 7.86921H67.6516V13.2643H69.2403C70.031 13.2643 70.6725 13.158 71.1647 12.9455C71.657 12.733 72.0151 12.4223 72.2388 12.0136C72.4775 11.6049 72.5968 11.0981 72.5968 10.4932C72.5968 9.85559 72.47 9.34877 72.2164 8.97275C71.9628 8.58038 71.5824 8.30245 71.0752 8.13896C70.5829 7.95913 69.9415 7.86921 69.1508 7.86921Z" fill="#2C2D2E"/>
<path d="M91.2922 5.24523L85.7652 22.7548H82.6996L77.1725 5.24523H80.1039L83.3261 15.9619C83.4305 16.2561 83.535 16.6403 83.6394 17.1144C83.7587 17.5722 83.8706 18.0463 83.975 18.5368C84.0944 19.0109 84.1839 19.436 84.2436 19.812C84.2883 19.436 84.3629 19.0109 84.4673 18.5368C84.5867 18.0463 84.706 17.5722 84.8254 17.1144C84.9447 16.6403 85.0491 16.2561 85.1386 15.9619L88.3609 5.24523H91.2922Z" fill="#2C2D2E"/>
<path d="M108.268 22.7548H99.1828V5.24523H108.268V7.86921H102.047V12.3324H107.865V14.9564H102.047V20.1063H108.268V22.7548Z" fill="#2C2D2E"/>
<path d="M123.789 22.7548H120.522L116.606 15.7657L112.667 22.7548H109.624L114.927 13.6812L109.96 5.24523H113.115L116.74 11.7684L120.343 5.24523H123.408L118.418 13.8038L123.789 22.7548Z" fill="#2C2D2E"/>
<path d="M130.652 5.24523C132.726 5.24523 134.233 5.71935 135.173 6.66758C136.127 7.6158 136.605 8.92371 136.605 10.5913C136.605 11.3433 136.5 12.0627 136.291 12.7493C136.083 13.4196 135.732 14.0245 135.24 14.564C134.747 15.1035 134.098 15.5286 133.293 15.8392C132.502 16.1499 131.518 16.3052 130.339 16.3052H128.75V22.7548H125.886V5.24523H130.652ZM130.473 7.84469H128.75V13.7057H130.048C130.824 13.7057 131.48 13.6076 132.017 13.4114C132.569 13.1989 132.987 12.8719 133.271 12.4305C133.554 11.9891 133.696 11.4169 133.696 10.7139C133.696 9.74932 133.435 9.02997 132.913 8.55586C132.39 8.08174 131.577 7.84469 130.473 7.84469Z" fill="#2C2D2E"/>
<path d="M148.825 22.7548H139.741V5.24523H148.825V7.86921H142.605V12.3324H148.423V14.9564H142.605V20.1063H148.825V22.7548Z" fill="#2C2D2E"/>
<path d="M156.761 5.24523C158.163 5.24523 159.319 5.43324 160.229 5.80926C161.139 6.18529 161.818 6.75749 162.265 7.52589C162.713 8.27793 162.937 9.23433 162.937 10.3951C162.937 11.2452 162.787 11.9728 162.489 12.5777C162.206 13.1826 161.833 13.6894 161.37 14.0981C160.908 14.4905 160.408 14.8093 159.871 15.0545L164.458 22.7548H161.236L157.41 15.8392H155.082V22.7548H152.218V5.24523H156.761ZM156.582 7.86921H155.082V13.2643H156.671C157.462 13.2643 158.103 13.158 158.596 12.9455C159.088 12.733 159.446 12.4223 159.67 12.0136C159.908 11.6049 160.028 11.0981 160.028 10.4932C160.028 9.85559 159.901 9.34877 159.647 8.97275C159.394 8.58038 159.013 8.30245 158.506 8.13896C158.014 7.95913 157.372 7.86921 156.582 7.86921Z" fill="#2C2D2E"/>
<path d="M172.413 22.7548H169.549V7.89373H164.961V5.24523H177V7.89373H172.413V22.7548Z" fill="#2C2D2E"/>
</g>
</g>
</svg>
