<svg xmlns="http://www.w3.org/2000/svg" width="25" height="24" viewBox="0 0 25 24" fill="none">
    <path d="M6.5 3H18.5C20.1569 3 21.5 4.34315 21.5 6V18C21.5 19.6569 20.1569 21 18.5 21H6.5C4.84315 21 3.5 19.6569 3.5 18V6C3.5 4.34315 4.84315 3 6.5 3ZM8.5 13H16.5C17.0523 13 17.5 12.5523 17.5 12C17.5 11.4477 17.0523 11 16.5 11H8.5C7.94772 11 7.5 11.4477 7.5 12C7.5 12.5523 7.94772 13 8.5 13ZM8.5 9H16.5C17.0523 9 17.5 8.55228 17.5 8C17.5 7.44772 17.0523 7 16.5 7H8.5C7.94772 7 7.5 7.44772 7.5 8C7.5 8.55228 7.94772 9 8.5 9ZM8.5 17H13.5C14.0523 17 14.5 16.5523 14.5 16C14.5 15.4477 14.0523 15 13.5 15H8.5C7.94772 15 7.5 15.4477 7.5 16C7.5 16.5523 7.94772 17 8.5 17Z" fill="white"/>
  </svg>