<svg width="24" height="24" viewBox="0 0 24 24" fill="none" xmlns="http://www.w3.org/2000/svg">
<path d="M5.05542 2.35144L7.42748 4.72445C7.42788 4.72428 7.42828 4.72411 7.42868 4.72395L9.46246 6.75644C9.46206 6.75663 9.46166 6.75682 9.46126 6.75701L11.9004 9.19761H11.9028L14.9996 12.2923C14.9995 12.2938 14.9995 12.2954 14.9994 12.297L17.4372 14.7355C17.4378 14.7342 17.4383 14.733 17.4389 14.7318L20.1794 17.4734C20.1786 17.4741 20.1777 17.4748 20.1769 17.4754L21.8395 19.1394C22.3081 19.6081 22.3081 20.3679 21.8394 20.8366C21.4069 21.2691 20.7263 21.3024 20.2556 20.9364L20.1425 20.8365L18.1758 18.8701C16.4254 19.8856 14.3394 20.595 12 20.595C4.8 20.595 0 13.875 0 12.195C0 11.1265 1.94188 8.01892 5.20807 5.89848L3.35847 4.0486C2.88987 3.5799 2.88992 2.82009 3.35856 2.35144C3.82714 1.88287 4.58685 1.88287 5.05542 2.35144ZM6 12.195C6 15.5087 8.68629 18.195 12 18.195C13.5304 18.195 14.9269 17.6221 15.9869 16.6789L13.8579 14.5515C13.3471 14.9545 12.7022 15.195 12.0011 15.195C10.3443 15.195 9.00114 13.8519 9.00114 12.195C9.00114 11.4934 9.242 10.848 9.64556 10.3371L7.51607 8.20815C6.57296 9.26808 6 10.6646 6 12.195ZM12 3.79502C19.2 3.79502 24 10.515 24 12.195C24 12.857 23.2547 14.3016 21.9109 15.8092L17.9924 11.8912C17.8393 8.81924 15.3756 6.35565 12.3036 6.20256L10.059 3.95931C10.684 3.85292 11.3317 3.79502 12 3.79502Z" fill="#2C2D2E"/>
</svg>
