<svg width="36" height="36" viewBox="0 0 36 36" fill="none" xmlns="http://www.w3.org/2000/svg">
<rect width="36" height="36" rx="18" fill="#3A55F8"/>
<g clip-path="url(#clip0_1262_40272)">
<path d="M18.0417 29.625C15.7773 29.625 13.7947 29.1696 12.0939 28.2588C10.3931 27.348 9.07728 26.0473 8.14637 24.3566C7.21545 22.6658 6.75 20.6832 6.75 18.4088V17.5483C6.75 15.2839 7.22803 13.2762 8.18411 11.5251C9.14018 9.77395 10.4761 8.41534 12.1921 7.4492C13.908 6.48306 15.8729 6 18.087 6H18.2077C20.301 6 22.1704 6.43777 23.8159 7.31334C25.4613 8.1889 26.7419 9.39404 27.6577 10.9288C28.5736 12.4635 29.0315 14.187 29.0315 16.0991V16.869C29.0315 18.1975 28.8176 19.3649 28.3899 20.3712C27.9622 21.3776 27.3659 22.1551 26.601 22.7036C25.8362 23.252 24.9707 23.5263 24.0046 23.5263C23.4208 23.5263 22.8824 23.4357 22.3893 23.2546C21.8962 23.0734 21.4936 22.8218 21.1816 22.4998C20.8696 22.1777 20.6835 21.8104 20.6231 21.3978H20.4872C20.3966 21.7399 20.1929 22.0771 19.8758 22.4092C19.5588 22.7413 19.1638 23.0105 18.6908 23.2168C18.2178 23.4231 17.7146 23.5263 17.1812 23.5263C16.3962 23.5263 15.7119 23.3351 15.1282 22.9526C14.5445 22.5702 14.0916 22.0117 13.7696 21.277C13.4475 20.5423 13.2865 19.6668 13.2865 18.6503V17.3068C13.2865 16.3306 13.4475 15.4802 13.7696 14.7556C14.0916 14.031 14.5545 13.4724 15.1584 13.08C15.7622 12.6875 16.4768 12.4912 17.302 12.4912C18.0467 12.4912 18.6908 12.6849 19.2343 13.0724C19.7777 13.4599 20.135 13.9203 20.3061 14.4537H20.4117V13.7744C20.4117 13.4624 20.4897 13.2208 20.6457 13.0498C20.8017 12.8787 21.0206 12.7931 21.3024 12.7931C21.5842 12.7931 21.8031 12.8812 21.9591 13.0573C22.1151 13.2334 22.1931 13.4724 22.1931 13.7744V19.9939C22.1931 20.6379 22.3843 21.1311 22.7667 21.4732C23.1491 21.8154 23.6423 21.9865 24.2461 21.9865C24.8399 21.9865 25.3657 21.7802 25.8236 21.3676C26.2815 20.955 26.6388 20.3511 26.8954 19.5561C27.152 18.761 27.2804 17.815 27.2804 16.7181V16.1595C27.2804 14.5392 26.8979 13.0774 26.1331 11.7742C25.3682 10.4709 24.2989 9.4494 22.9252 8.7097C21.5515 7.97 19.979 7.60016 18.2077 7.60016H18.087C16.2252 7.60016 14.5722 8.01781 13.128 8.85312C11.6838 9.68842 10.5592 10.8659 9.75407 12.3855C8.94896 13.9052 8.54641 15.6563 8.54641 17.6389V18.3182C8.54641 20.2907 8.94141 22.0091 9.73143 23.4734C10.5214 24.9377 11.6335 26.0649 13.0676 26.8549C14.5017 27.6449 16.1597 28.0399 18.0417 28.0399H18.1625C18.9273 28.0399 19.9186 27.9494 21.1363 27.7682C21.6395 27.7078 21.9264 27.6726 21.9968 27.6625C22.2182 27.6525 22.4044 27.7103 22.5554 27.8361C22.7063 27.9619 22.7818 28.1305 22.7818 28.3419C22.7818 28.5733 22.7113 28.7696 22.5704 28.9306C22.4296 29.0916 22.2283 29.2023 21.9666 29.2627C20.9904 29.5042 19.7224 29.625 18.1625 29.625H18.0417ZM15.1433 18.4239C15.1433 19.551 15.3748 20.4115 15.8377 21.0053C16.3006 21.599 16.9447 21.8959 17.77 21.8959C18.5751 21.8959 19.2141 21.6141 19.6871 21.0506C20.1601 20.487 20.3966 19.6718 20.3966 18.605V17.2464C20.3966 16.2903 20.1576 15.5129 19.6796 14.9141C19.2016 14.3153 18.555 14.0159 17.7398 14.0159C16.9347 14.0159 16.3006 14.3153 15.8377 14.9141C15.3748 15.5129 15.1433 16.3356 15.1433 17.3823V18.4239Z" fill="white"/>
</g>
<defs>
<clipPath id="clip0_1262_40272">
<rect width="23.625" height="23.625" fill="white" transform="translate(6 6)"/>
</clipPath>
</defs>
</svg>
