<svg width="36" height="36" viewBox="0 0 36 36" fill="none" xmlns="http://www.w3.org/2000/svg">
<rect width="36" height="36" rx="18" fill="#3A55F8"/>
<path fill-rule="evenodd" clip-rule="evenodd" d="M6 17.0601C6 11.2616 11.4009 6.75 17.8125 6.75C24.2241 6.75 29.625 11.2616 29.625 17.0601C29.625 22.8585 24.2241 27.3702 17.8125 27.3702C16.8595 27.3702 15.9318 27.2717 15.0424 27.0853C13.6344 27.9717 11.6944 28.6969 9.26944 29.286C8.94531 29.3647 8.60325 29.3162 8.31381 29.1503C7.52987 28.7009 7.5684 27.8359 7.95753 27.1532C8.48409 26.2209 8.98155 25.2614 9.34853 24.2536C7.29228 22.4114 6 19.8785 6 17.0601Z" fill="white"/>
</svg>
