<svg width="24" height="24" viewBox="0 0 24 24" fill="none" xmlns="http://www.w3.org/2000/svg">
<path d="M12 4C19.2 4 24 10.72 24 12.4C24 14.08 19.2 20.8 12 20.8C4.8 20.8 0 14.08 0 12.4C0 10.72 4.8 4 12 4ZM12 6.4C8.68629 6.4 6 9.08629 6 12.4C6 15.7137 8.68629 18.4 12 18.4C15.3137 18.4 18 15.7137 18 12.4C18 9.08629 15.3137 6.4 12 6.4ZM12.0011 9.4C13.658 9.4 15.0011 10.7431 15.0011 12.4C15.0011 14.0569 13.658 15.4 12.0011 15.4C10.3443 15.4 9.00114 14.0569 9.00114 12.4C9.00114 10.7431 10.3443 9.4 12.0011 9.4Z" fill="#2C2D2E"/>
</svg>
