<svg width="36" height="36" viewBox="0 0 36 36" fill="none" xmlns="http://www.w3.org/2000/svg">
<rect width="36" height="36" rx="18" fill="url(#paint0_linear_1262_40266)"/>
<path d="M28.125 18C28.125 23.5919 23.5919 28.125 18 28.125C15.8671 28.125 13.8883 27.4655 12.2563 26.3393L8.79545 27.2045L9.70236 23.8037C8.55078 22.1603 7.875 20.159 7.875 18C7.875 12.4081 12.4081 7.875 18 7.875C23.5919 7.875 28.125 12.4081 28.125 18Z" fill="url(#paint1_linear_1262_40266)"/>
<path fill-rule="evenodd" clip-rule="evenodd" d="M18 29.8125C24.5239 29.8125 29.8125 24.5239 29.8125 18C29.8125 11.4761 24.5239 6.1875 18 6.1875C11.4761 6.1875 6.1875 11.4761 6.1875 18C6.1875 20.1186 6.74522 22.1068 7.72184 23.8261L6.1875 29.8125L12.3594 28.3813C14.0355 29.294 15.9572 29.8125 18 29.8125ZM18 27.9952C23.5202 27.9952 27.9952 23.5202 27.9952 18C27.9952 12.4798 23.5202 8.00481 18 8.00481C12.4798 8.00481 8.00481 12.4798 8.00481 18C8.00481 20.1314 8.67192 22.1069 9.80874 23.7292L8.91346 27.0865L12.3299 26.2324C13.941 27.3442 15.8945 27.9952 18 27.9952Z" fill="white"/>
<path d="M15.0469 12.5153C14.766 11.9512 14.3352 12.0011 13.8999 12.0011C13.1221 12.0011 11.9092 12.9329 11.9092 14.6669C11.9092 16.0881 12.5354 17.6437 14.6456 19.9709C16.6821 22.2167 19.3579 23.3785 21.5794 23.339C23.8008 23.2994 24.2578 21.3878 24.2578 20.7422C24.2578 20.4561 24.0803 20.3133 23.9579 20.2745C23.2009 19.9112 21.8048 19.2343 21.4871 19.1071C21.1694 18.9799 21.0035 19.152 20.9004 19.2455C20.6123 19.5201 20.0412 20.3292 19.8457 20.5112C19.6502 20.6932 19.3587 20.601 19.2374 20.5323C18.791 20.3531 17.5806 19.8147 16.6158 18.8795C15.4226 17.7228 15.3526 17.3249 15.1278 16.9707C14.948 16.6873 15.0799 16.5134 15.1458 16.4374C15.4029 16.1408 15.7578 15.6828 15.917 15.4552C16.0762 15.2277 15.9498 14.8821 15.874 14.6669C15.5479 13.7414 15.2716 12.9666 15.0469 12.5153Z" fill="white"/>
<defs>
<linearGradient id="paint0_linear_1262_40266" x1="33.75" y1="4.5" x2="-8.71718e-07" y2="36" gradientUnits="userSpaceOnUse">
<stop stop-color="#5BD066"/>
<stop offset="1" stop-color="#27B43E"/>
</linearGradient>
<linearGradient id="paint1_linear_1262_40266" x1="26.8594" y1="10.4062" x2="7.875" y2="28.125" gradientUnits="userSpaceOnUse">
<stop stop-color="#5BD066"/>
<stop offset="1" stop-color="#27B43E"/>
</linearGradient>
</defs>
</svg>
