<svg width="25" height="24" viewBox="0 0 25 24" fill="none" xmlns="http://www.w3.org/2000/svg">
<g id="Filled/write">
<path id="&#226;&#134;&#179; Icon Color" d="M14.688 6.27197L18.227 9.81097L9.60415 18.4349C8.8309 19.2081 7.87951 19.7795 6.83366 20.0988L3.93116 20.9849C3.75488 21.0387 3.56836 20.9394 3.51454 20.7631C3.49515 20.6996 3.49515 20.6318 3.51454 20.5682L4.40054 17.666C4.71988 16.62 5.29139 15.6685 6.06478 14.8951L14.688 6.27197ZM19.6391 3.44321L21.0574 4.86148C21.6066 5.41061 21.6409 6.27967 21.1604 6.86883L21.0573 6.98276L19.288 8.75097L15.748 5.21097L17.5177 3.44317C18.1036 2.85747 19.0533 2.85749 19.6391 3.44321Z" fill="white"/>
</g>
</svg>
